<svg width="16" height="16" viewBox="0 0 16 16" fill="none" xmlns="http://www.w3.org/2000/svg"><path fill-rule="evenodd" clip-rule="evenodd" d="M4.702 2.15h6.596c.42 0 .787 0 1.08.027.296.027.639.09.936.304.4.288.66.732.715 1.222.041.365-.072.694-.194.966-.12.268-.3.587-.506.954l-4.675 8.311a.75.75 0 0 1-1.308 0L2.688 5.652l-.017-.03c-.206-.366-.386-.685-.506-.953-.121-.272-.235-.601-.194-.966a1.75 1.75 0 0 1 .715-1.222c.297-.215.64-.277.937-.304.292-.027.658-.027 1.079-.027zM3.554 3.705a.25.25 0 0 0-.09.154.956.956 0 0 0 .07.197c.089.197.233.456.46.86l3.256 5.788V3.65H4.736c-.465 0-.761 0-.976.02a.955.955 0 0 0-.206.035zM8.75 3.65v7.054l3.255-5.787c.228-.405.372-.664.46-.86a.948.948 0 0 0 .072-.198.25.25 0 0 0-.09-.154.956.956 0 0 0-.207-.034c-.215-.02-.511-.021-.976-.021H8.75z" fill="currentColor"></path></svg>